<?xml version="1.0" encoding="UTF-8"?>
<svg version="1.1" xmlns="http://www.w3.org/2000/svg" width="1254" height="1254">
<path d="M0 0 C413.82 0 827.64 0 1254 0 C1254 413.82 1254 827.64 1254 1254 C840.18 1254 426.36 1254 0 1254 C0 840.18 0 426.36 0 0 Z " fill="#FDFDFD" transform="translate(0,0)"/>
<path d="M0 0 C0.72256485 0.0028299 1.4451297 0.00565979 2.18959045 0.00857544 C4.47162241 0.01966864 6.75324522 0.04475162 9.03515625 0.0703125 C10.59309324 0.08035639 12.15103646 0.08947976 13.70898438 0.09765625 C17.50536324 0.11957217 21.30144065 0.15402512 25.09765625 0.1953125 C25.21665283 1.19546387 25.33564941 2.19561523 25.45825195 3.22607422 C25.62548065 4.56742439 25.79306138 5.9087307 25.9609375 7.25 C26.20130737 9.21428955 26.20130737 9.21428955 26.4465332 11.21826172 C29.48883383 32.28284474 43.03488237 50.65353479 59.6875 63.13671875 C66.68961585 67.89733496 74.04906419 70.6817415 82.09765625 73.1953125 C82.82452637 73.45497803 83.55139648 73.71464355 84.30029297 73.98217773 C101.22830397 79.71200015 121.06850899 77.6506342 137.09765625 70.1953125 C138.01272949 69.77838135 138.01272949 69.77838135 138.94628906 69.35302734 C146.82696534 65.67149631 153.59966529 60.94309136 160.09765625 55.1953125 C161.01611328 54.41800781 161.01611328 54.41800781 161.953125 53.625 C175.21780842 41.54412128 182.93951385 22.53322224 184.63378906 4.99658203 C184.72138489 4.09714874 184.80898071 3.19771545 184.89923096 2.27102661 C184.99745148 1.24354813 184.99745148 1.24354813 185.09765625 0.1953125 C192.35676086 0.12541893 199.61579143 0.07230343 206.87516594 0.03987598 C210.24697741 0.02430261 213.61855656 0.00321968 216.99023438 -0.03100586 C220.87766527 -0.06761202 224.76477125 -0.08446536 228.65234375 -0.09765625 C230.4451326 -0.12088203 230.4451326 -0.12088203 232.2741394 -0.14457703 C248.10129922 -0.14772175 260.36750054 5.97317116 271.84375 16.8046875 C288.11974598 34.06796227 288.40921274 53.54671188 288.83227539 76.05908203 C288.88429764 78.23749316 288.95959441 80.41546983 289.05786133 82.59228516 C289.90021098 101.6807605 289.90021098 101.6807605 285.62353516 106.75927734 C282.76298554 109.44530837 279.55102866 111.34114186 276.09765625 113.1953125 C274.77926566 114.0562478 273.46140859 114.91800182 272.14453125 115.78125 C271.0565625 116.37164063 269.96859375 116.96203125 268.84765625 117.5703125 C268.25251221 117.89427002 267.65736816 118.21822754 267.04418945 118.55200195 C265.4003176 119.44234829 263.74930169 120.31947085 262.09765625 121.1953125 C261.41574219 121.59363281 260.73382812 121.99195313 260.03125 122.40234375 C228.40601506 140.16058529 186.89735023 134.11936873 153.83496094 124.97851562 C145.19426652 122.50622275 136.61678476 119.82464858 128.04541016 117.12353516 C125.43330387 116.30100508 122.81910308 115.48589414 120.203125 114.67578125 C111.08582748 111.8483946 102.03813358 108.8697914 93.01953125 105.7421875 C74.91920052 99.50273582 56.87062544 94.07029117 38.09765625 90.1953125 C37.1344043 89.99284912 36.17115234 89.79038574 35.17871094 89.58178711 C26.7857935 87.98707622 18.48079622 87.83753068 9.97265625 87.8828125 C9.2446582 87.88496765 8.51666016 87.8871228 7.76660156 87.88934326 C-14.59951076 87.99555037 -33.44751065 92.37541251 -53.2421875 102.875 C-55.90234375 104.1953125 -55.90234375 104.1953125 -57.90234375 104.1953125 C-57.97909892 97.4550719 -58.03123614 90.7149461 -58.06713867 83.97436523 C-58.08212323 81.68656197 -58.10251787 79.39878693 -58.12866211 77.11108398 C-58.38047246 54.49258964 -56.39229218 35.38448136 -39.90234375 18.1953125 C-29.10491704 7.80921633 -15.30986859 -0.2304738 0 0 Z " fill="#027ACC" transform="translate(444.90234375,428.8046875)"/>
<path d="M0 0 C0.81342865 -0.00832352 1.6268573 -0.01664703 2.4649353 -0.02522278 C5.16018441 -0.04935844 7.85519129 -0.05810189 10.55053711 -0.06469727 C12.42801485 -0.07366527 14.30549186 -0.08278715 16.18296814 -0.09205627 C20.12476334 -0.10856156 24.06647349 -0.11624842 28.00830078 -0.11914062 C33.03975699 -0.12450703 38.07040368 -0.16210796 43.10163212 -0.20788479 C46.98376818 -0.23775915 50.86571244 -0.24486653 54.74795341 -0.24586678 C56.60138062 -0.25005331 58.45480922 -0.26242418 60.30812263 -0.28338432 C78.76771897 -0.47542339 78.76771897 -0.47542339 87.01538086 5.30639648 C87.91514648 5.86842773 88.81491211 6.43045898 89.74194336 7.00952148 C93.29038367 10.59454366 95.75600114 14.77431432 98.39038086 19.05639648 C98.99543457 20.02359619 99.60048828 20.9907959 100.22387695 21.98730469 C101.507873 24.04192923 102.78788803 26.09904621 104.06420898 28.15844727 C105.98247576 31.2533086 107.91108443 34.34145079 109.84350586 37.42749023 C112.36261515 41.45056948 114.87629637 45.47695849 117.38647461 49.50561523 C119.73554553 53.27001548 122.10157814 57.02262093 124.48803711 60.76342773 C125.03186035 61.61718994 125.57568359 62.47095215 126.13598633 63.35058594 C127.14081118 64.92545867 128.14868117 66.49839506 129.16040039 68.06884766 C129.61141113 68.77630127 130.06242187 69.48375488 130.52709961 70.21264648 C130.91341553 70.81399414 131.29973145 71.4153418 131.69775391 72.03491211 C132.1325708 72.78450195 132.5673877 73.5340918 133.01538086 74.30639648 C133.71864502 75.34731445 134.42190918 76.38823242 135.14648438 77.46069336 C138.49369668 84.29341182 137.50123489 92.50339679 137.40600586 99.93139648 C137.3985361 101.64631488 137.39284664 103.36124186 137.38885498 105.07617188 C137.37365642 109.56768785 137.33442532 114.05867809 137.29003906 118.54998779 C137.2489609 123.14189545 137.23081729 127.7338889 137.21069336 132.32592773 C137.16792473 141.31964702 137.09974438 150.31297786 137.01538086 159.30639648 C138.11060059 159.27537842 139.20582031 159.24436035 140.33422852 159.21240234 C144.01538086 159.30639648 144.01538086 159.30639648 146.91381836 160.81030273 C149.74559081 164.17369046 149.75538552 167.03855941 149.64038086 171.24389648 C149.66938477 172.29867187 149.66938477 172.29867187 149.69897461 173.37475586 C149.66528265 176.96968822 149.18217114 179.06967841 147.10595703 182.01635742 C142.71277092 185.27159762 139.23030492 184.94148116 133.90209961 184.79467773 C132.93254837 184.787603 131.96299713 184.78052826 130.96406555 184.77323914 C127.87620949 184.74531522 124.79018611 184.68257951 121.70288086 184.61889648 C119.60590189 184.59381107 117.50889442 184.57099833 115.41186523 184.55053711 C110.27900077 184.49549486 105.14750122 184.40923508 100.01538086 184.30639648 C99.82057129 182.88073364 99.82057129 182.88073364 99.62182617 181.42626953 C99.44748047 180.17370361 99.27313477 178.9211377 99.09350586 177.63061523 C98.92238281 176.39142334 98.75125977 175.15223145 98.57495117 173.87548828 C96.2918582 159.31329974 89.20751046 146.08559207 77.20288086 137.23217773 C74.51817314 135.4922245 71.80696101 133.86793663 69.01538086 132.30639648 C67.96350586 131.70827148 66.91163086 131.11014648 65.82788086 130.49389648 C54.40371734 125.67036078 39.1383422 125.24542675 27.32788086 128.93139648 C11.6059164 135.31844454 1.35854906 145.32555584 -6.07836914 160.54467773 C-8.99856859 168.06419131 -9.05948121 176.44272409 -9.98461914 184.30639648 C-80.27461914 184.30639648 -150.56461914 184.30639648 -222.98461914 184.30639648 C-223.64461914 178.36639648 -224.30461914 172.42639648 -224.98461914 166.30639648 C-225.64461914 163.99639648 -226.30461914 161.68639648 -226.98461914 159.30639648 C-157.02461914 159.30639648 -87.06461914 159.30639648 -14.98461914 159.30639648 C-15.14300958 109.50809246 -15.14300958 109.50809246 -15.3449707 59.70996094 C-15.36303711 50.08410645 -15.36303711 50.08410645 -15.36639404 45.57951355 C-15.37012456 42.42961892 -15.38512941 39.27999325 -15.40692139 36.13017273 C-15.43434776 32.11276723 -15.44258586 28.09575312 -15.43690825 24.07826269 C-15.43809554 22.60362031 -15.446034 21.12896433 -15.46147966 19.65440238 C-15.48137639 17.66242609 -15.47419125 15.67023416 -15.46563721 13.67817688 C-15.46932438 12.56188558 -15.47301155 11.44559427 -15.47681046 10.29547596 C-14.86738547 6.59443603 -13.5712212 4.97611676 -10.98461914 2.30639648 C-7.2490693 -0.18397007 -4.32655111 0.00374291 0 0 Z " fill="#033F7A" transform="translate(768.984619140625,454.693603515625)"/>
<path d="M0 0 C0.66 0 1.32 0 2 0 C3.45849609 2.21850586 3.45849609 2.21850586 5.1484375 5.27734375 C8.71487128 11.5651416 12.58631918 17.57018076 16.625 23.5625 C17.66551514 25.11505493 17.66551514 25.11505493 18.72705078 26.69897461 C23.07600528 33.17659644 27.46329587 39.6274925 31.875 46.0625 C32.40399902 46.8344873 32.93299805 47.60647461 33.47802734 48.40185547 C33.99316895 49.15354004 34.50831055 49.90522461 35.0390625 50.6796875 C35.53696289 51.40639648 36.03486328 52.13310547 36.54785156 52.88183594 C37.49145397 54.25821363 38.43605958 55.63390429 39.38183594 57.00878906 C54.29907786 78.74346263 69.01418978 102.67849028 67 130 C66.94070313 130.97066406 66.88140625 131.94132813 66.8203125 132.94140625 C65.02128624 149.06682454 55.38919721 163.80719613 43.375 174.25 C30.88068675 183.71303352 15.84265496 188.59863967 0.25 188.5 C-0.79623535 188.49500488 -1.8424707 188.49000977 -2.92041016 188.48486328 C-20.68304181 188.08758091 -35.23329622 180.15166549 -48 168 C-54.14262799 161.0288315 -58.76419178 153.70495859 -62 145 C-62.31839844 144.19820312 -62.63679688 143.39640625 -62.96484375 142.5703125 C-69.50412771 123.22367515 -63.60279968 102.65438843 -55.02587891 85.03271484 C-49.17517117 73.43990366 -41.92352694 62.82948589 -34.46069336 52.22802734 C-29.07422064 44.5757812 -23.81407643 36.84924027 -18.625 29.0625 C-18.24335693 28.49069 -17.86171387 27.91888 -17.46850586 27.32974243 C-12.42071492 19.75899998 -7.45808738 12.14223404 -2.81494141 4.31469727 C-1.92738768 2.84459738 -0.9714903 1.41603386 0 0 Z " fill="#037FD2" transform="translate(549,303)"/>
<path d="M0 0 C1.04365723 -0.00285507 1.04365723 -0.00285507 2.10839844 -0.00576782 C10.148339 -0.00328022 17.80306915 0.40443644 25.625 2.375 C26.75421875 2.62378906 27.8834375 2.87257813 29.046875 3.12890625 C43.40328838 6.61690809 57.50014231 11.06103749 71.625 15.375 C72.67421631 15.69283447 73.72343262 16.01066895 74.80444336 16.33813477 C81.0113068 18.22840903 87.18925751 20.19677526 93.35546875 22.21484375 C94.12374496 22.46614044 94.89202118 22.71743713 95.68357849 22.97634888 C98.84753427 24.01205766 102.01126215 25.04840392 105.1730957 26.09057617 C125.73746009 32.9283325 125.73746009 32.9283325 146.81640625 37.84765625 C149.22973876 38.30078544 151.62654556 38.79431619 154.02734375 39.30859375 C154.84275635 39.48318115 155.65816895 39.65776855 156.49829102 39.83764648 C158.10719337 40.18322998 159.71578224 40.5302779 161.32397461 40.87915039 C163.75400407 41.39751924 166.1882679 41.88915354 168.625 42.375 C169.49165283 42.55812744 170.35830566 42.74125488 171.2512207 42.92993164 C180.49634259 44.70731692 189.68070211 44.81606333 199.0625 44.8125 C199.90404633 44.81323517 200.74559265 44.81397034 201.61264038 44.81472778 C214.8431357 44.78438009 227.07168657 43.88189115 239.625 39.375 C240.37426758 39.11267578 241.12353516 38.85035156 241.89550781 38.58007812 C252.08997242 34.92007663 261.398975 30.02165806 270.625 24.375 C271.93404297 23.57449219 271.93404297 23.57449219 273.26953125 22.7578125 C275.06409708 21.64524454 276.8465755 20.51319168 278.625 19.375 C278.13328988 32.40531823 268.87383426 43.73931132 259.80859375 52.49609375 C249.45275343 61.4069331 235.86226334 66.45935717 222.26704407 66.52890015 C221.00942261 66.53750061 219.75180115 66.54610107 218.45606995 66.55496216 C217.07528728 66.55939628 215.69450417 66.56369474 214.3137207 66.56787109 C212.84973968 66.57578028 211.38576057 66.58404973 209.92178345 66.59265137 C205.13146803 66.6187514 200.34114432 66.6341552 195.55078125 66.6484375 C193.89966515 66.65379992 192.24854909 66.65917743 190.59743309 66.66456985 C183.73365821 66.68617043 176.8698856 66.70491081 170.0060854 66.71619225 C160.17260106 66.73246392 150.33950965 66.76575127 140.50617343 66.82259309 C133.58716676 66.86122813 126.66826554 66.88081657 119.74915379 66.88611281 C115.61692058 66.88977177 111.48510764 66.90185232 107.3529911 66.93421555 C103.47125794 66.9641877 99.59020189 66.97064757 95.70837784 66.95883179 C94.28249403 66.95861021 92.85657971 66.96698438 91.4308033 66.98448563 C89.48800139 67.00704065 87.54489475 66.9959399 85.602005 66.98300171 C84.51378606 66.98631186 83.42556711 66.989622 82.30437183 66.99303246 C79.625 66.375 79.625 66.375 77.88229656 63.95223427 C77.4673887 63.10174696 77.05248083 62.25125965 76.625 61.375 C63.93692699 50.20192079 49.09122203 46.44788975 32.61328125 47.23144531 C19.25592355 48.19585179 8.19971973 54.21657243 -1.375 63.375 C-2.035 64.365 -2.695 65.355 -3.375 66.375 C-6.40203705 66.71201215 -9.15981728 66.84944425 -12.1875 66.8125 C-13.04537109 66.80420166 -13.90324219 66.79590332 -14.78710938 66.78735352 C-28.73949012 66.42025436 -40.84328204 61.41339109 -50.625 51.3125 C-57.1856149 43.46946038 -63.18178081 32.29023985 -64 22.0625 C-64.11214844 20.73798828 -64.11214844 20.73798828 -64.2265625 19.38671875 C-64.27554687 18.72285156 -64.32453125 18.05898438 -64.375 17.375 C-54.58552654 12.12877952 -45.03150026 7.84536084 -34.3046875 4.92626953 C-32.49603881 4.40957814 -30.71478334 3.799584 -28.9375 3.18359375 C-19.37553513 0.17451051 -9.94370949 0.00295274 0 0 Z " fill="#03559D" transform="translate(452.375,533.625)"/>
<path d="M0 0 C17.32330175 -0.67873716 33.73936684 1.18211531 47.12695312 13.39208984 C56.17003605 23.29426565 57.12852899 36.86678792 57.09570312 49.63818359 C57.10653931 50.87926376 57.11737549 52.12034393 57.12854004 53.39903259 C57.16832734 57.99050475 57.18262048 62.58184476 57.19476318 67.17346191 C57.20811056 71.70358916 57.24337459 76.23322398 57.28320312 80.76318359 C57.28018188 81.9568605 57.27716064 83.15053741 57.27404785 84.38038635 C57.28415894 85.48261032 57.29427002 86.58483429 57.3046875 87.72045898 C57.30674194 88.69020157 57.30879639 89.65994415 57.31091309 90.65907288 C57.75306498 93.51372227 58.40117308 94.39702896 60.68945312 96.10302734 C62.7304555 96.67320542 62.7304555 96.67320542 64.87695312 96.79052734 C66.13507813 96.89365234 67.39320312 96.99677734 68.68945312 97.10302734 C68.68945312 102.05302734 68.68945312 107.00302734 68.68945312 112.10302734 C60.06246105 115.44250815 52.15963795 116.84177579 43.43554688 112.99755859 C36.71724912 109.5557461 35.03751504 104.97668346 32.68945312 98.10302734 C32.30015625 98.53873047 31.91085937 98.97443359 31.50976562 99.42333984 C21.98714698 109.56032098 10.14886006 114.77656324 -3.71289062 115.45068359 C-18.51071227 115.83295227 -31.97321061 114.74274653 -43.34960938 104.21630859 C-49.75358615 97.280938 -53.04428492 90.65873213 -52.81054688 81.16552734 C-52.79773682 80.37355957 -52.78492676 79.5815918 -52.77172852 78.765625 C-52.45669177 69.69219292 -49.54580826 63.59255986 -43.35742188 56.95458984 C-28.61578734 43.61959983 -9.56960332 44.4366939 9.09619141 44.90185547 C16.87004293 45.33708129 25.64450319 46.58055238 32.68945312 50.10302734 C32.40866858 40.10709766 32.06446129 32.68152426 25.00195312 25.29052734 C17.55966385 20.37580801 10.14817342 19.57412268 1.37695312 19.66552734 C0.36093018 19.67310059 -0.65509277 19.68067383 -1.7019043 19.68847656 C-12.86925162 19.93371606 -21.01938789 22.76764366 -30.25195312 29.02880859 C-30.93128906 29.38330078 -31.610625 29.73779297 -32.31054688 30.10302734 C-35.31054688 29.10302734 -35.31054688 29.10302734 -37.13476562 25.72412109 C-37.76647277 24.33436538 -38.38716483 22.939562 -38.99804688 21.54052734 C-39.31837891 20.82960938 -39.63871094 20.11869141 -39.96875 19.38623047 C-40.75875183 17.62936072 -41.53588311 15.8667139 -42.31054688 14.10302734 C-29.26874242 4.5192771 -15.94970243 0.71119764 0 0 Z " fill="#053F79" transform="translate(1016.310546875,754.89697265625)"/>
<path d="M0 0 C7.63049511 5.8641768 13.15850131 12.97595098 15.109375 22.62109375 C15.20878897 24.616055 15.25488103 26.6139287 15.26708984 28.61132812 C15.27735199 29.8193811 15.28761414 31.02743408 15.29818726 32.27209473 C15.30548859 33.5732019 15.31278992 34.87430908 15.3203125 36.21484375 C15.3332818 37.56718763 15.34709851 38.91952362 15.36172485 40.27185059 C15.42320258 46.00684638 15.47742307 51.74181654 15.51074219 57.47705078 C15.5316947 60.98965029 15.56699493 64.50185987 15.61149979 68.01423645 C15.63251706 69.99943783 15.63770626 71.98478635 15.64266968 73.97009277 C15.65923615 75.17814575 15.67580261 76.38619873 15.69287109 77.63085938 C15.70095795 78.69357056 15.7090448 79.75628174 15.71737671 80.85119629 C16.16017521 83.98005293 16.93488652 85.36237352 19.109375 87.62109375 C21.1410316 88.30960204 21.1410316 88.30960204 23.296875 88.37109375 C24.555 88.45359375 25.813125 88.53609375 27.109375 88.62109375 C27.109375 93.90109375 27.109375 99.18109375 27.109375 104.62109375 C19.20530743 106.59711064 8.91953902 107.42168991 1.1875 104.52734375 C-3.24602834 101.3938726 -5.36596161 97.76683271 -6.890625 92.62109375 C-6.890625 91.30109375 -6.890625 89.98109375 -6.890625 88.62109375 C-7.550625 89.32234375 -8.210625 90.02359375 -8.890625 90.74609375 C-20.58858375 102.31334905 -34.01809776 106.9815068 -50.203125 106.93359375 C-51.81864258 106.95776367 -51.81864258 106.95776367 -53.46679688 106.98242188 C-65.93942025 106.98997646 -76.61250625 103.61290969 -85.77734375 94.80859375 C-92.32819605 86.88816779 -94.68275833 76.84408759 -94.34375 66.734375 C-93.12621875 58.36909565 -88.20337182 50.99854608 -81.62109375 45.84375 C-70.18164999 37.92155835 -57.94941301 35.92093909 -44.265625 36.12109375 C-42.32405518 36.13269531 -42.32405518 36.13269531 -40.34326172 36.14453125 C-29.51392298 36.33793628 -19.34453476 37.86618106 -8.890625 40.62109375 C-8.77811232 29.30606154 -8.77811232 29.30606154 -13.1640625 19.203125 C-20.79932154 12.20701661 -29.70306493 11.4232189 -39.515625 11.37109375 C-40.46308594 11.35046875 -41.41054688 11.32984375 -42.38671875 11.30859375 C-51.39125297 11.25932133 -58.97604908 13.1463145 -66.765625 17.74609375 C-69.81396838 19.53244075 -72.40568321 20.95652345 -75.890625 21.62109375 C-77.06469521 19.35382042 -78.23002239 17.08274751 -79.390625 14.80859375 C-79.72449219 14.16599609 -80.05835938 13.52339844 -80.40234375 12.86132812 C-81.89301584 9.92561676 -82.890625 7.95982858 -82.890625 4.62109375 C-62.44262298 -12.27274087 -22.07477678 -14.85232465 0 0 Z " fill="#053F78" transform="translate(403.890625,763.37890625)"/>
<path d="M0 0 C0.83217041 0.00749268 1.66434082 0.01498535 2.52172852 0.02270508 C19.38901672 0.31689241 33.0139542 5.677217 45.62109375 17.05078125 C52.69409095 24.40732845 58.33875658 35.54299525 59.1875 45.6875 C59.27128906 46.63496094 59.35507812 47.58242188 59.44140625 48.55859375 C59.7012426 53.78296296 59.625 59.01917325 59.625 64.25 C28.275 64.25 -3.075 64.25 -35.375 64.25 C-31.17043335 77.91484162 -28.63350788 85.59660393 -16.375 92.25 C-6.22926048 97.41399916 6.4090145 97.97588519 17.4140625 95.34375 C25.80670084 92.27758705 32.56900068 87.81066593 38.625 81.25 C42.98147645 82.69950405 45.94257289 84.92747112 49.4375 87.875 C50.90123047 89.10089844 50.90123047 89.10089844 52.39453125 90.3515625 C53.13058594 90.97804688 53.86664062 91.60453125 54.625 92.25 C44.72873492 104.50251867 31.84633145 113.11114416 15.89599609 115.05078125 C-4.00195649 116.79629074 -22.69986521 115.90856094 -39.03125 103.1796875 C-52.06273041 91.91452221 -59.28521669 78.88701818 -60.6640625 61.6328125 C-61.38590339 46.84240265 -57.19966948 34.15400379 -48.375 22.25 C-47.653125 21.21875 -46.93125 20.1875 -46.1875 19.125 C-34.45857473 5.94428593 -17.30359804 -0.20706975 0 0 Z " fill="#064079" transform="translate(699.375,754.75)"/>
<path d="M0 0 C8.25 0 16.5 0 25 0 C31.23904007 16.46018301 37.20555264 32.98247381 42.9375 49.625 C43.6982894 51.82561707 44.45935632 54.02613821 45.22070312 56.2265625 C48.89417224 66.85214291 48.89417224 66.85214291 50.22311401 70.74200439 C50.87436684 72.63485103 51.54707574 74.520297 52.22485352 76.40380859 C53 79 53 79 53 83 C53.66 83 54.32 83 55 83 C55.18792114 81.94268677 55.18792114 81.94268677 55.37963867 80.86401367 C56.02893369 77.86642225 56.92159372 75.07341939 57.92578125 72.17578125 C58.31056641 71.06396484 58.69535156 69.95214844 59.09179688 68.80664062 C59.49462891 67.65357422 59.89746094 66.50050781 60.3125 65.3125 C60.70373047 64.17876953 61.09496094 63.04503906 61.49804688 61.87695312 C63.21152466 56.9467973 64.96511168 52.05454664 66.91796875 47.21386719 C68.93317158 42.20995812 70.80337994 37.16274749 72.63671875 32.08984375 C73.30267133 30.25844062 73.96868874 28.42706105 74.63476562 26.59570312 C75.66938631 23.74523778 76.70309115 20.89444546 77.7355957 18.04321289 C78.74191204 15.26621457 79.75160327 12.49046197 80.76171875 9.71484375 C81.07211594 8.85455063 81.38251312 7.99425751 81.70231628 7.1078949 C83.88672762 1.11327238 83.88672762 1.11327238 85 0 C86.4887186 -0.08669432 87.981445 -0.10703494 89.47265625 -0.09765625 C90.37177734 -0.09443359 91.27089844 -0.09121094 92.19726562 -0.08789062 C93.61555664 -0.07532227 93.61555664 -0.07532227 95.0625 -0.0625 C96.4865918 -0.05573242 96.4865918 -0.05573242 97.93945312 -0.04882812 C100.29303065 -0.0370011 102.64648477 -0.02052025 105 0 C105.34611328 1.09054687 105.34611328 1.09054687 105.69921875 2.203125 C107.43858112 7.56558606 109.28443578 12.81434505 111.5 18 C113.19012013 21.95735445 114.67768821 25.90509897 116 30 C117.2832525 33.97294973 118.71777744 37.79333254 120.375 41.625 C122.89240494 47.50671463 124.90434764 53.50722415 126.85693359 59.59423828 C127.97108768 63.04041372 129.12963006 66.39362763 130.60546875 69.703125 C131.86039907 72.66996307 132.62534733 75.28079652 133.1875 78.4375 C133.34605469 79.30246094 133.50460937 80.16742187 133.66796875 81.05859375 C133.77753906 81.69925781 133.88710938 82.33992187 134 83 C134.66 83 135.32 83 136 83 C136.103125 82.01 136.20625 81.02 136.3125 80 C136.79713869 76.66785255 137.80034065 73.75336628 139.01245117 70.609375 C140.25386978 67.32920638 141.42518699 64.02536077 142.59375 60.71875 C142.8280925 60.05673584 143.062435 59.39472168 143.30387878 58.71264648 C144.03653837 56.64198264 144.76839204 54.57103562 145.5 52.5 C151.17544646 36.43394765 151.17544646 36.43394765 154 29 C154.62840477 27.29291617 155.25378573 25.5847136 155.875 23.875 C156.21015625 22.95332031 156.5453125 22.03164063 156.890625 21.08203125 C157.70045059 18.83219888 158.50130531 16.57913163 159.296875 14.32421875 C159.73515625 13.08285156 160.1734375 11.84148438 160.625 10.5625 C161.02976562 9.40878906 161.43453125 8.25507812 161.8515625 7.06640625 C163 4 163 4 165 0 C172.59 0 180.18 0 188 0 C186.35077888 4.94766335 184.73133143 9.79490428 182.875 14.6484375 C181.74439589 17.68693605 180.69213638 20.75115252 179.625 23.8125 C177.74081421 29.1188666 175.64331885 34.2277036 173.2109375 39.3046875 C171.63578569 42.81067055 170.32087457 46.3919622 169 50 C163.0292716 66.17798159 163.0292716 66.17798159 159.921875 72.953125 C158.13976606 76.91001095 156.59430535 80.96475817 155 85 C154.0009293 87.50037695 153.00096968 90.00038401 152 92.5 C151.48692346 93.7825298 150.97390178 95.06508155 150.4609375 96.34765625 C148.640625 100.8984375 146.8203125 105.44921875 145 110 C138.07 110 131.14 110 124 110 C123.24203125 107.97230469 122.4840625 105.94460938 121.703125 103.85546875 C117.25673442 91.98609214 112.75368841 80.13804922 108.2578125 68.28735352 C106.99092675 64.94791512 105.72473706 61.60821326 104.45872116 58.26844501 C103.47417533 55.6714845 102.48921165 53.07468262 101.5041275 50.47792625 C100.81146657 48.65175139 100.1191995 46.82542715 99.42694092 44.99909973 C99.00600159 43.88991684 98.58506226 42.78073395 98.15136719 41.63793945 C97.783078 40.66693802 97.41478882 39.69593658 97.03533936 38.69551086 C96.04637259 36.12073127 95.03100778 33.5581985 94 31 C90.05307484 40.24224976 86.42483863 49.59255146 82.83840942 58.97897339 C81.19457046 63.28053167 79.54485237 67.57983143 77.89453125 71.87890625 C77.56571457 72.73557388 77.23689789 73.59224152 76.89811707 74.47486877 C72.3369645 86.34465622 67.67394629 98.17423568 63 110 C56.07 110 49.14 110 42 110 C41.08734375 107.57333984 41.08734375 107.57333984 40.15625 105.09765625 C34.61370811 90.40322425 28.97230926 75.7503518 23.25 61.125 C17.97306302 47.63469916 12.71579746 34.13718166 7.50915527 20.61956787 C6.83861553 18.87897907 6.1674769 17.13862086 5.49572754 15.39849854 C4.56833068 12.99549708 3.64316772 10.5916488 2.71875 8.1875 C2.30281586 7.11095657 2.30281586 7.11095657 1.878479 6.01266479 C0 1.11476262 0 1.11476262 0 0 Z " fill="#053F79" transform="translate(769,758)"/>
<path d="M0 0 C-1.07955259 1.73152958 -2.16382512 3.46011684 -3.25 5.1875 C-3.85328125 6.15042969 -4.4565625 7.11335937 -5.078125 8.10546875 C-6.91637545 10.87405327 -8.88425949 13.43957951 -11 16 C-14.42448877 14.6730106 -17.70264333 13.17599312 -21 11.5625 C-33.17367821 6.06890423 -48.06681221 3.36700023 -61.1875 7.1875 C-65.01880982 8.78020926 -67.63801936 10.4951255 -70 14 C-70.92342286 18.53466584 -70.82806623 21.71337078 -68.29296875 25.65234375 C-61.27864153 32.83396327 -47.34571512 33.00019972 -37.89111328 34.50463867 C-22.96777913 36.91619518 -9.65306945 40.0156891 0.625 51.875 C5.17863951 58.91244288 5.00549217 67.91279354 4 76 C1.7181948 83.87426527 -3.38315059 90.19007673 -10.35546875 94.43359375 C-29.57678562 104.47635931 -55.12974078 105.35056367 -75.81713867 99.27539062 C-83.61567038 96.71032821 -92.4315108 93.20811296 -98 87 C-96.55797524 82.84848662 -94.4989562 79.70021555 -91.875 76.1875 C-91.15054688 75.21167969 -90.42609375 74.23585938 -89.6796875 73.23046875 C-89.12539063 72.49441406 -88.57109375 71.75835938 -88 71 C-84.30065434 71.6528257 -81.71410383 73.31548645 -78.5625 75.3125 C-68.03755557 81.445741 -59.28887016 83.33906358 -47.25 83.4375 C-46.27957764 83.44773193 -45.30915527 83.45796387 -44.30932617 83.46850586 C-35.88241092 83.36550142 -28.24901623 82.05373447 -22 76 C-20.85726426 73.71452852 -20.76872743 72.23120095 -20.6875 69.6875 C-20.65011719 68.92824219 -20.61273437 68.16898438 -20.57421875 67.38671875 C-21.17517751 64.01804167 -22.66932506 62.47946215 -25 60 C-34.75793349 55.39472709 -46.26174516 54.51479418 -56.828125 53.02148438 C-70.55054405 50.92500369 -81.48946219 47.42325737 -91 37 C-91.49628906 36.48050781 -91.99257813 35.96101562 -92.50390625 35.42578125 C-96.85969504 29.6433578 -95.55902396 20.82708012 -95 14 C-93.55489694 5.6261439 -87.46406088 -0.46111787 -80.75 -5.25 C-58.02580876 -19.50603109 -21.15171964 -15.86378973 0 0 Z " fill="#053E77" transform="translate(615,768)"/>
<path d="M0 0 C1.64762581 -0.01925285 1.64762581 -0.01925285 3.32853699 -0.03889465 C4.52118668 -0.04628159 5.71383636 -0.05366852 6.94262695 -0.0612793 C8.16617386 -0.06935104 9.38972076 -0.07742279 10.65034485 -0.08573914 C13.24539773 -0.09959146 15.84046891 -0.11030845 18.43554688 -0.11816406 C22.39724512 -0.135352 26.35810374 -0.17922698 30.31958008 -0.22338867 C32.83975623 -0.23351751 35.35993948 -0.24203301 37.88012695 -0.2487793 C39.06265549 -0.26628738 40.24518402 -0.28379547 41.46354675 -0.30183411 C49.08213882 -0.28182949 53.89190934 0.3656681 59.47583008 5.89135742 C59.88381836 6.47804199 60.29180664 7.06472656 60.7121582 7.66918945 C61.19942383 8.36753906 61.68668945 9.06588867 62.1887207 9.78540039 C65.29880078 14.56968815 68.2891397 19.42021807 71.2434082 24.30200195 C72.64679587 26.61364913 74.05326523 28.92339366 75.4621582 31.23168945 C75.81592529 31.81152588 76.16969238 32.3913623 76.53417969 32.98876953 C78.92501938 36.88932679 81.38877203 40.73489784 83.8996582 44.55981445 C84.54741211 45.55094238 85.19516602 46.54207031 85.86254883 47.56323242 C87.08966227 49.43161776 88.32749283 51.29302094 89.57739258 53.14624023 C94.67722295 60.94096925 94.67722295 60.94096925 93.7434082 66.17700195 C91.59183192 68.32857824 86.60703593 67.35596153 83.62133789 67.36987305 C82.66361984 67.37805054 81.70590179 67.38622803 80.71916199 67.39465332 C77.53454219 67.41956311 74.34996716 67.43603829 71.1652832 67.45043945 C70.08021736 67.45576313 68.99515152 67.46108681 67.8772049 67.46657181 C62.13323166 67.49332869 56.38928035 67.51269475 50.64526367 67.52709961 C44.70533562 67.54374631 38.76596254 67.58851749 32.82624435 67.63947105 C28.26578113 67.67309628 23.70545028 67.68467198 19.14487457 67.69032669 C16.95516981 67.6970531 14.76547418 67.712311 12.57588959 67.7362175 C9.51115001 67.76776748 6.44791537 67.76792068 3.38305664 67.76049805 C2.47688095 67.77690338 1.57070526 67.79330872 0.6370697 67.81021118 C-3.7075757 67.76710576 -5.69412599 67.57817202 -9.31962585 64.99234009 C-11.49104803 61.83622488 -11.88393312 60.33723161 -11.88769531 56.5480957 C-11.90649498 54.89112671 -11.90649498 54.89112671 -11.92567444 53.20068359 C-11.91241623 52.01724365 -11.89915802 50.83380371 -11.88549805 49.61450195 C-11.88791 48.39045654 -11.89032196 47.16641113 -11.89280701 45.90527344 C-11.89182838 43.31970985 -11.8784313 40.73412536 -11.85351562 38.14868164 C-11.8192153 34.19125175 -11.83285686 30.23605534 -11.85229492 26.27856445 C-11.84539638 23.76553411 -11.83572394 21.25250954 -11.82299805 18.73950195 C-11.82795792 17.55606201 -11.83291779 16.37262207 -11.83802795 15.15332031 C-11.7205629 6.95967525 -11.7205629 6.95967525 -9.34619141 2.9543457 C-6.08411775 0.17973462 -4.21339153 0.0427921 0 0 Z " fill="#FAFBFC" transform="translate(787.256591796875,474.822998046875)"/>
<path d="M0 0 C0.09376255 14.13490394 0.16386802 28.26975911 0.20724869 42.40491104 C0.22807494 48.96926958 0.25630222 55.53341839 0.30175781 62.09765625 C0.34539201 68.43894243 0.36917439 74.78002754 0.37950897 81.12145233 C0.3868688 83.53422966 0.40124047 85.94699666 0.42292023 88.35968781 C0.56929781 105.33310348 0.35556205 120.80653977 -11.8828125 134.03515625 C-22.99233608 144.29512803 -35.78890644 146.17807746 -50.375 146.1875 C-51.365 146.19974609 -52.355 146.21199219 -53.375 146.22460938 C-67.6205094 146.2527997 -78.36016247 142.27854524 -88.8046875 132.390625 C-97.57344147 122.84173278 -100 110.56966318 -100 98 C-91.75 98 -83.5 98 -75 98 C-73.75 105.125 -73.75 105.125 -73.38574219 107.33251953 C-72.24945032 113.36927473 -69.93120856 117.54174047 -64.9375 121.3125 C-60.06024664 124.1143264 -55.80744709 124.24586766 -50.3125 124.3125 C-49.14557617 124.35600586 -49.14557617 124.35600586 -47.95507812 124.40039062 C-41.04723353 124.47528802 -35.86135115 122.55201589 -30.6875 117.9375 C-24.36125561 106.92514866 -25.52445744 93.97914305 -25.48828125 81.70703125 C-25.47141458 79.54797863 -25.4532617 77.38893571 -25.43388367 75.22990417 C-25.3865935 69.57969189 -25.35664871 63.92951897 -25.33044434 58.2791748 C-25.30053249 52.50049065 -25.25403887 46.72194179 -25.20898438 40.94335938 C-25.1231902 29.62897733 -25.05573914 18.31456726 -25 7 C-23.57543027 6.52411651 -22.15077079 6.04850168 -20.72607422 5.57299805 C-19.93272675 5.30811081 -19.13937927 5.04322357 -18.32199097 4.77030945 C-15.26489361 3.75613195 -12.19891292 2.77447994 -9.125 1.8125 C-8.03445313 1.46832031 -6.94390625 1.12414062 -5.8203125 0.76953125 C-3 0 -3 0 0 0 Z " fill="#04407A" transform="translate(279,724)"/>
<path d="M0 0 C11.56865248 5.87712292 20.08686071 14.76310685 24.37109375 27.0078125 C26.76003122 36.32997739 25.92405441 46.54303284 22.25 55.4375 C15.33343941 66.97915903 6.35764833 74.8779638 -6.75 78.4375 C-21.17787789 79.88028779 -32.64212823 77.35501451 -43.9375 68.25 C-51.21427006 61.56754781 -56.02947894 52.26021177 -57.06640625 42.44140625 C-57.45621382 31.96689965 -55.38804589 21.47004586 -48.51171875 13.27734375 C-35.79176369 -0.00668914 -18.25365639 -6.79070842 0 0 Z " fill="#05417B" transform="translate(506.75,597.5625)"/>
<path d="M0 0 C7.67578156 6.04453831 14.02696872 13.57962114 16.125 23.3125 C17.45203196 35.34580514 16.47562736 46.32510279 9.4375 56.5 C2.01810093 65.55575776 -6.16219277 71.46945533 -17.875 73.3125 C-31.6994101 74.12570059 -41.03167211 72.28876481 -51.875 63.3125 C-56.81099637 58.6025798 -60.23319377 53.58522473 -62.875 47.3125 C-63.23335937 46.54421875 -63.59171875 45.7759375 -63.9609375 44.984375 C-67.00409741 36.0889845 -65.12462415 24.93320104 -61.875 16.3125 C-56.20213886 5.16117482 -47.39668751 -2.09471698 -35.875 -6.6875 C-23.31721848 -9.88048631 -10.60979369 -7.27155491 0 0 Z " fill="#043F79" transform="translate(837.875,602.6875)"/>
<path d="M0 0 C0.00331015 0.78391208 0.00662029 1.56782415 0.01003075 2.37549114 C0.09123618 21.44609411 0.1833206 40.51661611 0.28752708 59.58710766 C0.33765787 68.80943835 0.38410076 78.03176013 0.421875 87.25415039 C0.45480673 95.29198714 0.49464453 103.32975484 0.54279006 111.36751539 C0.56804327 115.62379841 0.58982806 119.8800357 0.60334396 124.13637352 C0.61617498 128.14267706 0.63824063 132.14882367 0.66738319 136.15504074 C0.67645083 137.6251881 0.68214731 139.09536072 0.68421364 140.56553459 C0.68754174 142.57381073 0.7042053 144.58205154 0.7215271 146.59025574 C0.72705786 147.71392138 0.73258862 148.83758703 0.73828697 149.99530315 C1.007166 153.08227206 1.56664599 155.2593724 3 158 C7.97051897 160.48525948 13.53788717 160.55712599 19 161 C19 165.95 19 170.9 19 176 C9.49937399 179.8002504 0.11372755 180.47100112 -9.6796875 177.1015625 C-16.78712995 173.72732215 -21.32775041 168.32226584 -24 161 C-25.03201833 157.63504693 -25.12331404 154.56451734 -25.12025452 151.05218506 C-25.12162918 149.83504822 -25.12300385 148.61791138 -25.12442017 147.3638916 C-25.12088129 146.0183103 -25.11724648 144.67272925 -25.11352539 143.32714844 C-25.11324327 141.90785728 -25.11340175 140.48856598 -25.1139679 139.0692749 C-25.11425489 135.21838213 -25.10837399 131.36752048 -25.10139394 127.51663494 C-25.09514409 123.4914179 -25.09455531 119.46620015 -25.09336853 115.440979 C-25.09026003 107.81958917 -25.08205312 100.19821367 -25.07201904 92.57683015 C-25.06084297 83.89975814 -25.05534368 75.22268545 -25.05032361 66.54560804 C-25.03987012 48.6970639 -25.02227997 30.8485331 -25 13 C-24.44538086 12.71278076 -23.89076172 12.42556152 -23.31933594 12.12963867 C-20.79427016 10.81931857 -18.27212506 9.50347091 -15.75 8.1875 C-14.87730469 7.73568359 -14.00460937 7.28386719 -13.10546875 6.81835938 C-12.26113281 6.37685547 -11.41679687 5.93535156 -10.546875 5.48046875 C-9.77182617 5.07723389 -8.99677734 4.67399902 -8.19824219 4.25854492 C-5.94157099 3.0315452 -5.94157099 3.0315452 -3.84082031 1.3449707 C-2 0 -2 0 0 0 Z " fill="#043F79" transform="translate(480,691)"/>
<path d="M0 0 C4.82088518 4.40923464 8.36194427 9.51449191 12.0625 14.875 C12.67416016 15.74769531 13.28582031 16.62039063 13.91601562 17.51953125 C21.09211545 27.83759911 25.15979409 35.10971711 24 48 C22.28266995 54.22790779 18.33511265 58.51207503 13 62 C5.91417511 65.76301322 -1.32944077 65.9712401 -8.984375 63.81640625 C-14.3790349 61.63135989 -19.76148655 57.60217603 -22.3671875 52.296875 C-24.50984936 44.51980602 -24.09745645 36.30422555 -20.6875 29 C-16.80070689 22.16810712 -12.03426148 15.89327731 -7.26708984 9.65771484 C-5.59716714 7.47297974 -3.95552074 5.26750408 -2.3125 3.0625 C-1.549375 2.051875 -0.78625 1.04125 0 0 Z " fill="#048CDC" transform="translate(262,648)"/>
<path d="M0 0 C0.92558286 14.64477763 0.92558286 14.64477763 -3.41015625 20.265625 C-3.93480469 20.83796875 -4.45945312 21.4103125 -5 22 C-5.53496094 22.61359375 -6.06992187 23.2271875 -6.62109375 23.859375 C-14.45044171 31.73923489 -25.0081664 34.4579266 -35.8125 34.5625 C-43.23907132 34.42380903 -49.34137453 33.50260733 -54.83203125 28.24609375 C-59.66428519 22.8253686 -60.37460104 19.25312849 -60.26171875 11.9765625 C-59.89426499 7.79746154 -58.97616985 5.97616985 -56 3 C-40.22630043 -8.08351315 -17.72194205 -5.90731402 0 0 Z " fill="#F9FAFB" transform="translate(395,819)"/>
<path d="M0 0 C0.9907251 0.00322266 1.9814502 0.00644531 3.00219727 0.00976562 C12.68610308 0.18922614 21.78417405 1.99602391 31.125 4.4375 C31.8045492 14.20790744 31.12208584 20.62971673 24.65625 28.14453125 C15.99578538 36.5290497 3.88220479 38.74891744 -7.70214844 38.8269043 C-13.95880397 38.70471516 -18.79746811 37.22762523 -23.875 33.4375 C-29.07164946 27.98735545 -29.22109087 23.99586539 -29.15625 16.64453125 C-28.68899457 11.31652137 -26.32253435 8.88503435 -22.6875 5.25 C-15.59832013 0.68141742 -8.27695324 -0.08456657 0 0 Z " fill="#F9FAFC" transform="translate(1017.875,814.5625)"/>
<path d="M0 0 C5.35621482 4.38235758 10.40888251 9.63978592 12.75 16.25 C12.75 18.89 12.75 21.53 12.75 24.25 C-10.68 24.25 -34.11 24.25 -58.25 24.25 C-55.94239126 13.86576065 -52.65255834 6.90404909 -44.25 0.25 C-29.97956599 -8.39265722 -14.49475549 -7.80486834 0 0 Z " fill="#F8F9FB" transform="translate(722.25,778.75)"/>
<path d="M0 0 C4.64224421 3.70316427 8.46192327 8.54650687 9.3203125 14.54296875 C9.63292285 21.16790352 7.84723 26.20238004 4.046875 31.6328125 C-1.50032254 36.93724428 -6.75992673 37.92970641 -14.1640625 37.8515625 C-20.05031375 37.38989574 -24.77956321 34.80637429 -28.953125 30.6328125 C-32.9507102 25.00222681 -34.00319063 19.43117555 -32.953125 12.6328125 C-30.7972303 5.43799231 -25.95453728 1.01203061 -19.640625 -2.7421875 C-12.35864429 -4.43567139 -6.41240339 -3.97932835 0 0 Z " fill="#F6F8FA" transform="translate(502.953125,618.3671875)"/>
<path d="M0 0 C4.32273649 2.75083231 7.39891424 6.09454576 9 11 C9.99680693 18.23607994 9.89752342 24.43465176 5.42578125 30.41796875 C1.36679865 34.92177136 -2.77739328 37.5777274 -8.83203125 38.37109375 C-15.93517843 38.52935522 -20.59543416 37.764895 -26 33 C-30.17560446 28.60462689 -32.07709435 24.66366671 -32.3125 18.625 C-32.11765671 11.70233235 -29.2532302 6.54171783 -24.6640625 1.51171875 C-17.37234898 -5.11244353 -8.1574879 -4.06997246 0 0 Z " fill="#F9FAFB" transform="translate(825,618)"/>
<path d="M0 0 C1.12492355 0.00565979 2.24984711 0.01131958 3.40885925 0.01715088 C6.99566509 0.03951032 10.58146571 0.08970833 14.16796875 0.140625 C16.6021991 0.16069045 19.03644513 0.17894114 21.47070312 0.1953125 C27.43263364 0.23937377 33.39397937 0.30628257 39.35546875 0.390625 C39.15050781 1.18984375 38.94554687 1.9890625 38.734375 2.8125 C36.88450259 10.35360665 35.76056268 17.63796536 35.35546875 25.390625 C28.59290363 25.49201175 21.83053436 25.56208471 15.06738281 25.61035156 C12.76652706 25.63047188 10.46572246 25.65777134 8.16503906 25.69238281 C4.85859558 25.74088112 1.5528279 25.76358978 -1.75390625 25.78125 C-2.78320251 25.80189514 -3.81249878 25.82254028 -4.87298584 25.84381104 C-11.9663508 25.84604179 -11.9663508 25.84604179 -15.28979492 23.61425781 C-17.47192586 20.03255866 -17.26620292 16.99087356 -17.20703125 12.890625 C-17.23087891 12.13136719 -17.25472656 11.37210938 -17.27929688 10.58984375 C-17.27639648 9.48576172 -17.27639648 9.48576172 -17.2734375 8.359375 C-17.2741626 7.69357422 -17.2748877 7.02777344 -17.27563477 6.34179688 C-14.78552213 -1.35684148 -6.53660865 -0.1238343 0 0 Z " fill="#033F7B" transform="translate(400.64453125,613.609375)"/>
<path d="M0 0 C2.875 0.875 2.875 0.875 4.875 2.875 C5.10527085 5.18062333 5.23491501 7.4967055 5.3125 9.8125 C6.01658314 23.25437944 9.34352599 31.87877753 19.1875 41.1875 C23.28207486 44.51836764 27.95449593 46.11655063 32.875 47.875 C39.48898176 50.48898176 39.48898176 50.48898176 41.875 52.875 C42.3772103 56.05566523 42.11345283 57.48103446 40.4375 60.25 C37.09594787 62.36903306 35.24765167 62.11693228 31.42578125 61.47265625 C18.03116453 58.33425448 7.38081751 51.55528588 -0.125 39.875 C-5.16002591 31.40181724 -7.64838363 22.90788724 -7.5625 13.0625 C-7.58248047 12.23041016 -7.60246094 11.39832031 -7.62304688 10.54101562 C-7.61991548 6.63617048 -7.59709939 4.54036822 -5.29296875 1.29296875 C-3.125 -0.125 -3.125 -0.125 0 0 Z " fill="#F3F8FB" transform="translate(508.125,412.125)"/>
<path d="M0 0 C0.99 0.33 1.98 0.66 3 1 C3 32.68 3 64.36 3 97 C2.67 97 2.34 97 2 97 C1.505 89.575 1.505 89.575 1 82 C0.67 82 0.34 82 0 82 C0 54.94 0 27.88 0 0 Z " fill="#EEF2F8" transform="translate(251,731)"/>
<path d="M0 0 C0.99 0.99 0.99 0.99 2 2 C0.08588443 2.98414433 -1.8313967 3.96213349 -3.75 4.9375 C-4.81734375 5.48277344 -5.8846875 6.02804687 -6.984375 6.58984375 C-11.61288204 8.75421038 -15.21331265 9.12441913 -20.32745361 9.12025452 C-21.62873199 9.12162918 -22.93001038 9.12300385 -24.27072144 9.12442017 C-25.71075463 9.12088122 -27.15078758 9.11724642 -28.59082031 9.11352539 C-30.10863239 9.11324329 -31.6264446 9.1134017 -33.14425659 9.1139679 C-37.263735 9.11425497 -41.38318433 9.10837267 -45.50265598 9.10139394 C-49.8081453 9.09514553 -54.11363527 9.09455542 -58.41912842 9.09336853 C-66.57175731 9.09025961 -74.72437281 9.08205212 -82.8769958 9.07201904 C-92.15865136 9.06084429 -101.44030756 9.05534402 -110.72196817 9.05032361 C-129.81465305 9.03986916 -148.90732545 9.02227819 -168 9 C-168 8.67 -168 8.34 -168 8 C-167.25161928 7.99668985 -166.50323856 7.99337971 -165.73217964 7.98996925 C-147.4943409 7.90863076 -129.25658558 7.81650299 -111.01886177 7.71247292 C-102.19911546 7.6624223 -93.3793781 7.6159787 -84.55957031 7.578125 C-76.86924017 7.54510964 -69.178981 7.50522616 -61.48872936 7.45720994 C-57.41952334 7.43203954 -53.35036382 7.41023071 -49.28110123 7.39665604 C-45.44468077 7.38374934 -41.6084206 7.36160378 -37.772089 7.33261681 C-36.37015716 7.32360786 -34.96819956 7.31786658 -33.56624031 7.31578636 C-20.40721718 7.98378438 -20.40721718 7.98378438 -9 3 C-6.8359375 2.5859375 -6.8359375 2.5859375 -4.375 2.375 C-3.55773437 2.30023437 -2.74046875 2.22546875 -1.8984375 2.1484375 C-1.27195312 2.09945312 -0.64546875 2.05046875 0 2 C0 1.34 0 0.68 0 0 Z " fill="#093675" transform="translate(701,590)"/>
<path d="M0 0 C4.37417135 -0.04995979 8.74818533 -0.08598048 13.12255859 -0.10986328 C14.60631204 -0.11983431 16.09004629 -0.13341605 17.57373047 -0.15087891 C25.92819605 -0.24664824 33.85745577 -0.12128084 42 2 C43.12921875 2.24878906 44.2584375 2.49757813 45.421875 2.75390625 C58.63703765 5.96463239 71.61377856 10.01615229 84.62011719 13.97314453 C89.07659893 15.32708575 93.53753024 16.66594682 98 18 C94.3671875 20.09375 94.3671875 20.09375 91.0625 19.25 C89.23894669 18.50569253 87.42289056 17.74181946 85.625 16.9375 C83.25651625 16.09161295 81.47305776 15.79405972 79 15.5625 C75.31199197 15.17646551 73.14013209 14.01290519 70 12 C66.5116868 10.85727671 63.67281859 10 60 10 C60 9.34 60 8.68 60 8 C59.34 8 58.68 8 58 8 C57.67 8.66 57.34 9.32 57 10 C56.505 8.515 56.505 8.515 56 7 C55.01 7.33 54.02 7.66 53 8 C50.99124558 7.72428861 48.98821313 7.39764263 47 7 C47 6.34 47 5.68 47 5 C46.278125 5.20625 45.55625 5.4125 44.8125 5.625 C41.47645355 6.06980619 40.07929715 5.24638218 37 4 C35.783125 4 34.56625 4 33.3125 4 C32.219375 4 31.12625 4 30 4 C29.34 3.34 28.68 2.68 28 2 C25.08811755 1.62731113 25.08811755 1.62731113 21.6796875 1.5859375 C20.42285156 1.54726563 19.16601562 1.50859375 17.87109375 1.46875 C16.55238281 1.4378125 15.23367188 1.406875 13.875 1.375 C12.53513082 1.33681971 11.19528617 1.29776794 9.85546875 1.2578125 C6.57045381 1.1632797 3.28544862 1.07772844 0 1 C0 0.67 0 0.34 0 0 Z " fill="#0B6DC1" transform="translate(436,534)"/>
<path d="M0 0 C1.76734798 5.59660195 -0.94305405 9.90039116 -3.4453125 14.87109375 C-7.37107993 22.03790173 -11.92885892 27.54836311 -18 33 C-18.66 32.67 -19.32 32.34 -20 32 C-18.625 30 -18.625 30 -17 28 C-16.34 28 -15.68 28 -15 28 C-14.731875 27.4225 -14.46375 26.845 -14.1875 26.25 C-12.97070811 23.94449957 -11.69666121 21.97943808 -10 20 C-9.34 20 -8.68 20 -8 20 C-8.20625 19.484375 -8.4125 18.96875 -8.625 18.4375 C-9.15887026 14.96734329 -8.07676761 12.29364209 -7 9 C-7.55429687 9.28875 -8.10859375 9.5775 -8.6796875 9.875 C-9.40414062 10.24625 -10.12859375 10.6175 -10.875 11 C-11.59429688 11.37125 -12.31359375 11.7425 -13.0546875 12.125 C-15 13 -15 13 -17 13 C-17 13.66 -17 14.32 -17 15 C-22.75 18 -22.75 18 -25 18 C-25 17.01 -25 16.02 -25 15 C-23.865625 14.41992188 -22.73125 13.83984375 -21.5625 13.2421875 C-13.93998366 9.30212781 -6.63533033 5.5059124 0 0 Z " fill="#184B82" transform="translate(730,553)"/>
<path d="M0 0 C1.32 0.66 2.64 1.32 4 2 C-12.45139506 19.51277538 -37.42882294 29.90189446 -61.29296875 31.17578125 C-63.52939351 31.18524426 -65.76608657 31.10637683 -68 31 C-68 30.34 -68 29.68 -68 29 C-67.0867395 28.87939209 -67.0867395 28.87939209 -66.1550293 28.75634766 C-50.40447764 27.20117404 -50.40447764 27.20117404 -35 24 C-34.67 23.34 -34.34 22.68 -34 22 C-32.109375 21.25390625 -32.109375 21.25390625 -29.75 20.5625 C-26.1201438 19.4288856 -23.25590518 17.97067945 -20 16 C-17.68308546 15.27833809 -15.35151077 14.59940471 -13 14 C-13 13.34 -13 12.68 -13 12 C-12.05125 11.7525 -11.1025 11.505 -10.125 11.25 C-6.52372681 9.80949073 -6.50819697 9.31803333 -5 6 C-4.13375 5.484375 -3.2675 4.96875 -2.375 4.4375 C-1.59125 3.963125 -0.8075 3.48875 0 3 C0 2.01 0 1.02 0 0 Z " fill="#1659A1" transform="translate(728,530)"/>
<path d="M0 0 C0 48.18 0 96.36 0 146 C-0.33 146 -0.66 146 -1 146 C-1 99.14 -1 52.28 -1 4 C-1.99 3.67 -2.98 3.34 -4 3 C-1.125 0 -1.125 0 0 0 Z " fill="#0A4679" transform="translate(478,692)"/>
<path d="M0 0 C4.78117826 4.78117826 3 15.17073095 3 21 C-28.35 21 -59.7 21 -92 21 C-92 20.67 -92 20.34 -92 20 C-46.955 19.505 -46.955 19.505 -1 19 C0.4783226 16.04335481 0.06032783 13.25770263 0 10 C-0.33 10 -0.66 10 -1 10 C-0.67 6.7 -0.34 3.4 0 0 Z " fill="#06306B" transform="translate(756,797)"/>
<path d="M0 0 C0.81090088 0.0714624 1.62180176 0.1429248 2.45727539 0.21655273 C14.45260598 1.15375188 26.41176802 1.11302428 38.4375 1.0625 C40.5371083 1.05747197 42.63671777 1.05291138 44.73632812 1.04882812 C49.82424832 1.03793267 54.91211081 1.02074085 60 1 C60 1.33 60 1.66 60 2 C58.31282461 2.31424786 56.62524051 2.62630155 54.9375 2.9375 C53.99777344 3.11152344 53.05804687 3.28554688 52.08984375 3.46484375 C45.73592599 4.56533267 39.68520899 5.15869219 33.25 5.125 C32.49589844 5.12886719 31.74179687 5.13273438 30.96484375 5.13671875 C27.71797795 5.13095167 25.10112935 5.03370978 22 4 C20.14537382 4.00564574 18.29071773 4.0525143 16.4375 4.125 C10.48116709 4.19754973 5.55598166 3.06505513 0 1 C0 0.67 0 0.34 0 0 Z " fill="#124785" transform="translate(618,577)"/>
<path d="M0 0 C3.3 0 6.6 0 10 0 C10 4.95 10 9.9 10 15 C4.375 17.25 4.375 17.25 0.1875 16.625 C-0.60269531 16.51414062 -1.39289063 16.40328125 -2.20703125 16.2890625 C-2.79871094 16.19367187 -3.39039063 16.09828125 -4 16 C-3.67 15.34 -3.34 14.68 -3 14 C-0.67843403 13.59270772 1.6568787 13.25561323 4 13 C4 13.66 4 14.32 4 15 C4.66 15 5.32 15 6 15 C6 10.38 6 5.76 6 1 C4.02 1 2.04 1 0 1 C0 0.67 0 0.34 0 0 Z " fill="#093A6D" transform="translate(489,852)"/>
<path d="M0 0 C1.67223853 2.15002097 3.16753165 4.28145317 4.5625 6.625 C5.91692163 9.07611371 5.91692163 9.07611371 8 11 C10 13 10 13 11.625 15.1875 C14.70708639 18.83733915 18.03159815 22.31047765 22 25 C23.32 25 24.64 25 26 25 C26.33 25.99 26.66 26.98 27 28 C27.66 28.33 28.32 28.66 29 29 C29 29.66 29 30.32 29 31 C25.30132749 29.68462703 22.55108685 28.08520735 19.5 25.625 C18.7678125 25.03976562 18.035625 24.45453125 17.28125 23.8515625 C16.5284375 23.24054688 15.775625 22.62953125 15 22 C14.18015625 21.38640625 13.3603125 20.7728125 12.515625 20.140625 C9.65414547 17.70570143 7.51921696 15.11762505 5.25 12.125 C4.47140625 11.11695313 3.6928125 10.10890625 2.890625 9.0703125 C0.94251312 5.90664321 0.3284427 3.66761019 0 0 Z " fill="#1A78C7" transform="translate(491,453)"/>
<path d="M0 0 C4.37417135 -0.04995979 8.74818533 -0.08598048 13.12255859 -0.10986328 C14.60631204 -0.11983431 16.09004629 -0.13341605 17.57373047 -0.15087891 C25.93968171 -0.2467799 33.83510685 -0.06159478 42 2 C43.99810662 2.34450114 45.99722415 2.68377223 48 3 C48 3.33 48 3.66 48 4 C37.50407609 5.32472826 37.50407609 5.32472826 33 4 C31.88625 3.7525 31.88625 3.7525 30.75 3.5 C29 3 29 3 28 2 C25.9291528 1.8415735 23.85321971 1.74875578 21.77734375 1.68359375 C19.88725586 1.62075195 19.88725586 1.62075195 17.95898438 1.55664062 C16.61849264 1.51682404 15.2779978 1.47711186 13.9375 1.4375 C12.59308477 1.39431958 11.2486834 1.35070544 9.90429688 1.30664062 C6.6029766 1.20014642 3.30157764 1.0981354 0 1 C0 0.67 0 0.34 0 0 Z " fill="#579CD6" transform="translate(436,534)"/>
<path d="M0 0 C0.33 0 0.66 0 1 0 C1 18.48 1 36.96 1 56 C-2 53 -2 53 -2.1875 50.3125 C-2.125625 49.549375 -2.06375 48.78625 -2 48 C-1.67 48 -1.34 48 -1 48 C-0.67 32.16 -0.34 16.32 0 0 Z " fill="#033064" transform="translate(1071,790)"/>
<path d="M0 0 C0.66 0 1.32 0 2 0 C0.26153753 4.4251772 -2.61078014 6.79771591 -6.82421875 8.91796875 C-11.70801431 10.96167888 -15.72482976 11.44704833 -21 11 C-21.99 10.34 -22.98 9.68 -24 9 C-20.98441261 7.9948042 -19.36185732 8.00871317 -16.25 8.1875 C-9.85237918 8.25278185 -6.30237673 6.24015033 -1.6875 1.75 C-1.130625 1.1725 -0.57375 0.595 0 0 Z " fill="#0E70CA" transform="translate(280,702)"/>
<path d="M0 0 C0.66 0.33 1.32 0.66 2 1 C2 1.66 2 2.32 2 3 C0.21118264 4.00508801 -1.58114696 5.00392736 -3.375 6 C-4.37273438 6.556875 -5.37046875 7.11375 -6.3984375 7.6875 C-9 9 -9 9 -11 9 C-11 9.66 -11 10.32 -11 11 C-16.75 14 -16.75 14 -19 14 C-19 13.01 -19 12.02 -19 11 C-18.24323975 10.60675537 -18.24323975 10.60675537 -17.47119141 10.20556641 C-15.18709511 9.01590003 -12.90603433 7.82052603 -10.625 6.625 C-9.8309375 6.2125 -9.036875 5.8 -8.21875 5.375 C-7.45820312 4.97539063 -6.69765625 4.57578125 -5.9140625 4.1640625 C-4.8614624 3.61419678 -4.8614624 3.61419678 -3.78759766 3.05322266 C-1.83836587 2.00521962 -1.83836587 2.00521962 0 0 Z " fill="#1B4F8C" transform="translate(724,557)"/>
<path d="M0 0 C-9.52858036 6.41346755 -19.38622875 11.22334175 -31 11 C-27.65479742 9.06757715 -24.55232518 8.4536147 -20.75 7.875 C-19.67234375 7.70742188 -18.5946875 7.53984375 -17.484375 7.3671875 C-16.66453125 7.24601562 -15.8446875 7.12484375 -15 7 C-15 6.34 -15 5.68 -15 5 C-9.375 2 -9.375 2 -6 2 C-6 1.34 -6 0.68 -6 0 C-2.25 -1.125 -2.25 -1.125 0 0 Z " fill="#0B69C0" transform="translate(589,479)"/>
<path d="M0 0 C0.66 0.66 1.32 1.32 2 2 C0.08588443 2.98414433 -1.8313967 3.96213349 -3.75 4.9375 C-5.35101562 5.75541016 -5.35101562 5.75541016 -6.984375 6.58984375 C-12.03035747 8.94942882 -16.21684969 9.13048767 -21.75 9.0625 C-22.44738281 9.05798828 -23.14476562 9.05347656 -23.86328125 9.04882812 C-25.57555803 9.0371002 -27.28779033 9.01916653 -29 9 C-29 8.67 -29 8.34 -29 8 C-27.33710937 7.83564453 -27.33710937 7.83564453 -25.640625 7.66796875 C-24.17701127 7.50847238 -22.71347333 7.34827951 -21.25 7.1875 C-20.52039063 7.11724609 -19.79078125 7.04699219 -19.0390625 6.97460938 C-14.74783816 6.48697025 -12.30010742 5.7211412 -9 3 C-6.640625 2.48828125 -6.640625 2.48828125 -4.25 2.3125 C-3.45078125 2.24675781 -2.6515625 2.18101562 -1.828125 2.11328125 C-1.22484375 2.07589844 -0.6215625 2.03851562 0 2 C0 1.34 0 0.68 0 0 Z " fill="#113F76" transform="translate(701,590)"/>
<path d="M0 0 C8.06480039 2.13337405 16.03946386 4.50679552 24 7 C23.67 7.66 23.34 8.32 23 9 C16.73999803 7.98774436 11.13829179 6.44900384 5.32421875 3.90234375 C2.89624709 2.95971946 0.56264877 2.43995917 -2 2 C-1.34 1.34 -0.68 0.68 0 0 Z " fill="#0A68BA" transform="translate(544,556)"/>
<path d="M0 0 C6.16449587 -0.3474768 11.2012868 0.03443979 16.9921875 2.24609375 C18.9759124 2.99095544 20.93716414 3.52360517 23 4 C23 4.66 23 5.32 23 6 C23.66 6.33 24.32 6.66 25 7 C19.33580057 6.33854315 14.03729239 5.01244028 8.5625 3.4375 C7.73556641 3.20353516 6.90863281 2.96957031 6.05664062 2.72851562 C4.03661574 2.15636985 2.01814324 1.57874796 0 1 C0 0.67 0 0.34 0 0 Z " fill="#367BC1" transform="translate(586,549)"/>
<path d="M0 0 C2.26995419 0.06652855 4.54168695 0.08543751 6.8125 0.0625 C8.55466797 0.04896484 8.55466797 0.04896484 10.33203125 0.03515625 C11.21246094 0.02355469 12.09289062 0.01195312 13 0 C13.33 0.66 13.66 1.32 14 2 C3.11 2.495 3.11 2.495 -8 3 C-8 2.01 -8 1.02 -8 0 C-4.58863658 -1.13712114 -3.44368615 -0.71231739 0 0 Z " fill="#053568" transform="translate(361,812)"/>
<path d="M0 0 C1.3236422 3.97092659 0.72572951 5.189014 -1 9 C-4.03885381 12.94229683 -7.46236023 16.50563411 -11 20 C-11.66 19.67 -12.32 19.34 -13 19 C-11.625 17 -11.625 17 -10 15 C-9.34 15 -8.68 15 -8 15 C-7.731875 14.4225 -7.46375 13.845 -7.1875 13.25 C-5.97070811 10.94449957 -4.69666121 8.97943808 -3 7 C-2.34 7 -1.68 7 -1 7 C-1.20625 6.401875 -1.4125 5.80375 -1.625 5.1875 C-2 3 -2 3 0 0 Z " fill="#0D4883" transform="translate(723,566)"/>
<path d="M0 0 C1.4540625 0.0309375 1.4540625 0.0309375 2.9375 0.0625 C2.6075 0.7225 2.2775 1.3825 1.9375 2.0625 C1.2775 2.0625 0.6175 2.0625 -0.0625 2.0625 C-1.26827428 7.00617454 -0.6915678 10.27112412 0.9375 15.0625 C0.2775 15.0625 -0.3825 15.0625 -1.0625 15.0625 C-2.82674607 11.97326913 -3.43167568 9.40787815 -3.75 5.875 C-3.83636719 4.99457031 -3.92273438 4.11414063 -4.01171875 3.20703125 C-4.02847656 2.49933594 -4.04523438 1.79164063 -4.0625 1.0625 C-3.0625 0.0625 -3.0625 0.0625 0 0 Z " fill="#104A89" transform="translate(392.0625,549.9375)"/>
<path d="M0 0 C1.32 0.33 2.64 0.66 4 1 C3.34 2.32 2.68 3.64 2 5 C1.01 5 0.02 5 -1 5 C-0.7525 5.9075 -0.505 6.815 -0.25 7.75 C0 11 0 11 -1.9375 13.375 C-2.618125 13.91125 -3.29875 14.4475 -4 15 C-5 13 -5 13 -4.00390625 9.9609375 C-3.52824219 8.77757812 -3.05257812 7.59421875 -2.5625 6.375 C-2.08941406 5.18648437 -1.61632812 3.99796875 -1.12890625 2.7734375 C-0.75636719 1.85820313 -0.38382813 0.94296875 0 0 Z " fill="#255387" transform="translate(934,758)"/>
<path d="M0 0 C6.80203375 -0.37634203 11.75690073 0.22528921 18 3 C17.01 3.495 17.01 3.495 16 4 C15.67 4.66 15.34 5.32 15 6 C14.67 5.01 14.34 4.02 14 3 C13.01 3.33 12.02 3.66 11 4 C8.99124558 3.72428861 6.98821313 3.39764263 5 3 C5 2.34 5 1.68 5 1 C3.35 1.33 1.7 1.66 0 2 C0 1.34 0 0.68 0 0 Z " fill="#1975C3" transform="translate(478,538)"/>
<path d="M0 0 C0.99 0.33 1.98 0.66 3 1 C1.546875 3.48046875 1.546875 3.48046875 -1 6 C-3.93544596 6.6295563 -6.76471297 6.47339855 -9.75 6.3125 C-10.54277344 6.28994141 -11.33554687 6.26738281 -12.15234375 6.24414062 C-14.1023762 6.18540471 -16.05143312 6.09572654 -18 6 C-18 5.67 -18 5.34 -18 5 C-13.71 5 -9.42 5 -5 5 C-4.67 4.01 -4.34 3.02 -4 2 C-3.01 2 -2.02 2 -1 2 C-0.67 1.34 -0.34 0.68 0 0 Z " fill="#0B3F7A" transform="translate(451,593)"/>
<path d="M0 0 C6.45810245 0.99681713 12.76571832 2.01636492 19 4 C19 4.33 19 4.66 19 5 C12.03672362 5.33693273 6.56654456 4.3030887 0 2 C0 1.34 0 0.68 0 0 Z " fill="#146DC2" transform="translate(524,485)"/>
<path d="M0 0 C1.32 0.66 2.64 1.32 4 2 C0.83047153 5.26008643 -2.39937989 8.22237877 -6 11 C-6.33 10.01 -6.66 9.02 -7 8 C-4.87219421 5.65941363 -2.88437779 4.29299694 0 3 C0 2.01 0 1.02 0 0 Z " fill="#1562AC" transform="translate(728,530)"/>
<path d="M0 0 C0.33 0.99 0.66 1.98 1 3 C0.34 4.32 -0.32 5.64 -1 7 C-7.6 7 -14.2 7 -21 7 C-21 6.67 -21 6.34 -21 6 C-15.39 6 -9.78 6 -4 6 C-3.67 5.01 -3.34 4.02 -3 3 C-1.4375 1.3125 -1.4375 1.3125 0 0 Z " fill="#03326B" transform="translate(833,860)"/>
<path d="M0 0 C-0.33 0.66 -0.66 1.32 -1 2 C-4.28414305 2.95067299 -5.69693408 3.10102197 -9 2 C-9 2.66 -9 3.32 -9 4 C-11.97 3.67 -14.94 3.34 -18 3 C-18 2.67 -18 2.34 -18 2 C-11.93184478 0.77100654 -6.20104812 -0.27560214 0 0 Z " fill="#1D73C2" transform="translate(441,535)"/>
<path d="M0 0 C0.99 0.33 1.98 0.66 3 1 C3 4.3 3 7.6 3 11 C2.01 11.33 1.02 11.66 0 12 C0 8.04 0 4.08 0 0 Z " fill="#063568" transform="translate(311,829)"/>
<path d="M0 0 C3 1 3 1 4.6875 3.875 C6 7 6 7 6 10 C6.66 10 7.32 10 8 10 C7.67 11.32 7.34 12.64 7 14 C6.01441551 12.42065361 5.03677459 10.83634827 4.0625 9.25 C3.51722656 8.36828125 2.97195313 7.4865625 2.41015625 6.578125 C1.17284288 4.31600083 0.46409487 2.51433675 0 0 Z " fill="#0F427D" transform="translate(775,648)"/>
<path d="M0 0 C0.66 0 1.32 0 2 0 C2.67260351 1.76858691 3.33788395 3.53996016 4 5.3125 C4.37125 6.29863281 4.7425 7.28476562 5.125 8.30078125 C6 11 6 11 6 14 C5.01 13.67 4.02 13.34 3 13 C2.05078125 10.8203125 2.05078125 10.8203125 1.3125 8.125 C1.06113281 7.24070312 0.80976562 6.35640625 0.55078125 5.4453125 C0 3 0 3 0 0 Z " fill="#204A7E" transform="translate(889,803)"/>
<path d="M0 0 C0.66 0 1.32 0 2 0 C4.01178391 2.33366933 5.01595171 4.04785514 6 7 C6.66 7 7.32 7 8 7 C9.625 9 9.625 9 11 11 C10.67 11.66 10.34 12.32 10 13 C2.01458523 6.4366454 2.01458523 6.4366454 0 3 C0 2.01 0 1.02 0 0 Z " fill="#18487F" transform="translate(399,578)"/>
<path d="M0 0 C-3.13138355 3.13138355 -6.4278637 4.89746937 -10.875 5.1875 C-11.57625 5.125625 -12.2775 5.06375 -13 5 C-12.67 4.01 -12.34 3.02 -12 2 C-7.9083139 0.19204568 -4.44280672 -0.21156222 0 0 Z " fill="#0C427F" transform="translate(704,571)"/>
<path d="M0 0 C-0.33 0.99 -0.66 1.98 -1 3 C-2.65 3.66 -4.3 4.32 -6 5 C-6.33 9.29 -6.66 13.58 -7 18 C-7.33 18 -7.66 18 -8 18 C-8 13.05 -8 8.1 -8 3 C-2 0 -2 0 0 0 Z " fill="#194680" transform="translate(463,701)"/>
<path d="M0 0 C0.66 0.66 1.32 1.32 2 2 C1.34 2 0.68 2 0 2 C-0.268125 2.57363281 -0.53625 3.14726563 -0.8125 3.73828125 C-2.03688657 6.07025435 -3.42002922 8.08218894 -5 10.1875 C-5.7734375 11.22970703 -5.7734375 11.22970703 -6.5625 12.29296875 C-8 14 -8 14 -10 15 C-8.46112863 11.68253359 -6.54788012 8.79522931 -4.4375 5.8125 C-3.81746094 4.93207031 -3.19742187 4.05164063 -2.55859375 3.14453125 C-1 1 -1 1 0 0 Z " fill="#20B1F0" transform="translate(262,648)"/>
<path d="M0 0 C-1.32 0.33 -2.64 0.66 -4 1 C-4 1.66 -4 2.32 -4 3 C-6.91708924 4.98362069 -8.12380904 4.9876191 -11.75 4.625 C-12.8225 4.41875 -13.895 4.2125 -15 4 C-12.19836511 2.13224341 -10.11958197 1.27321694 -6.9375 0.3125 C-6.05964844 0.04050781 -5.18179687 -0.23148438 -4.27734375 -0.51171875 C-2 -1 -2 -1 0 0 Z " fill="#39699F" transform="translate(278,725)"/>
<path d="M0 0 C6.51791392 -0.3540919 11.17521449 -0.03901852 17 3 C13.12813552 4.44715727 10.1767672 3.5441918 6.25 2.5625 C5.07953125 2.27503906 3.9090625 1.98757813 2.703125 1.69140625 C1.81109375 1.46324219 0.9190625 1.23507812 0 1 C0 0.67 0 0.34 0 0 Z " fill="#457EBC" transform="translate(613,556)"/>
<path d="M0 0 C-1.33333333 2.66666667 -2.66666667 5.33333333 -4 8 C-3.34 8 -2.68 8 -2 8 C-2.33 8.99 -2.66 9.98 -3 11 C-4.89213369 8.61426621 -6.02391783 6.92824652 -7 4 C-2.25 0 -2.25 0 0 0 Z " fill="#134481" transform="translate(981,765)"/>
<path d="M0 0 C4.62 0 9.24 0 14 0 C13.67 0.99 13.34 1.98 13 3 C11.02013918 2.88652381 9.04108402 2.7589065 7.0625 2.625 C5.96035156 2.55539062 4.85820313 2.48578125 3.72265625 2.4140625 C2.82417969 2.27742187 1.92570313 2.14078125 1 2 C0.67 1.34 0.34 0.68 0 0 Z " fill="#1C497B" transform="translate(557,819)"/>
<path d="M0 0 C0 6.6 0 13.2 0 20 C-0.33 20 -0.66 20 -1 20 C-1 14.72 -1 9.44 -1 4 C-1.99 3.67 -2.98 3.34 -4 3 C-1.125 0 -1.125 0 0 0 Z " fill="#134D82" transform="translate(478,692)"/>
<path d="M0 0 C0.66 0 1.32 0 2 0 C2 0.66 2 1.32 2 2 C5.3 2.66 8.6 3.32 12 4 C12 4.99 12 5.98 12 7 C7.02125936 6.52583422 3.93281242 5.0900669 0 2 C0 1.34 0 0.68 0 0 Z " fill="#1C4980" transform="translate(792,668)"/>
<path d="M0 0 C1.98 0 3.96 0 6 0 C6 0.66 6 1.32 6 2 C8.31 2.33 10.62 2.66 13 3 C13 3.33 13 3.66 13 4 C8.07872966 4.16682272 4.49656104 4.24828052 0 2 C0 1.34 0 0.68 0 0 Z " fill="#1B477C" transform="translate(417,594)"/>
<path d="M0 0 C4.95 0.33 9.9 0.66 15 1 C14 3 14 3 12.265625 3.71484375 C9.40006423 4.07550916 7.48397484 3.46183383 4.75 2.5625 C3.85796875 2.27503906 2.9659375 1.98757813 2.046875 1.69140625 C1.37140625 1.46324219 0.6959375 1.23507812 0 1 C0 0.67 0 0.34 0 0 Z " fill="#084182" transform="translate(618,577)"/>
<path d="M0 0 C1.98 0.495 1.98 0.495 4 1 C4 1.99 4 2.98 4 4 C2 5.6875 2 5.6875 0 7 C-1.125 2.25 -1.125 2.25 0 0 Z " fill="#174479" transform="translate(749,845)"/>
<path d="M0 0 C0.78890625 0.12761719 1.5778125 0.25523437 2.390625 0.38671875 C3.18984375 0.50660156 3.9890625 0.62648438 4.8125 0.75 C5.41578125 0.85699219 6.0190625 0.96398437 6.640625 1.07421875 C6.640625 1.73421875 6.640625 2.39421875 6.640625 3.07421875 C2.350625 3.07421875 -1.939375 3.07421875 -6.359375 3.07421875 C-2.359375 0.07421875 -2.359375 0.07421875 0 0 Z " fill="#053568" transform="translate(361.359375,769.92578125)"/>
<path d="M0 0 C0.66 0 1.32 0 2 0 C1.88652381 1.97986082 1.7589065 3.95891598 1.625 5.9375 C1.52058594 7.59072266 1.52058594 7.59072266 1.4140625 9.27734375 C1.27742187 10.17582031 1.14078125 11.07429687 1 12 C0.01 12.495 0.01 12.495 -1 13 C-1.07654536 8.48382401 -1.10228696 4.40914783 0 0 Z " fill="#124272" transform="translate(852,626)"/>
<path d="M0 0 C2.90025094 1.45012547 3.08706855 3.31312909 4.1875 6.3125 C4.55230469 7.27800781 4.91710937 8.24351562 5.29296875 9.23828125 C6.008904 12.0347797 5.99249531 13.33859538 5 16 C4.89042969 15.36191406 4.78085937 14.72382813 4.66796875 14.06640625 C4.50941406 13.24011719 4.35085938 12.41382813 4.1875 11.5625 C3.96126953 10.32693359 3.96126953 10.32693359 3.73046875 9.06640625 C3.36888672 8.04353516 3.36888672 8.04353516 3 7 C2.01 6.67 1.02 6.34 0 6 C0 4.02 0 2.04 0 0 Z " fill="#47A6E1" transform="translate(726,460)"/>
<path d="M0 0 C0 0.66 0 1.32 0 2 C-7.625 3.25 -7.625 3.25 -11 1 C-7.27569643 0.30710631 -3.78916254 -0.11144596 0 0 Z M-12 3 C-8 4 -8 4 -8 4 Z " fill="#144F90" transform="translate(686,576)"/>
<path d="M0 0 C-1.91282125 0.84212256 -3.83042473 1.67338864 -5.75 2.5 C-7.35101563 3.19609375 -7.35101563 3.19609375 -8.984375 3.90625 C-12 5 -12 5 -16 5 C-11.53321948 1.09156705 -5.86504904 -1.93756084 0 0 Z " fill="#39ACE6" transform="translate(437,431)"/>
<path d="M0 0 C0.33 0.66 0.66 1.32 1 2 C-2.96 2 -6.92 2 -11 2 C-11 1.34 -11 0.68 -11 0 C-7.17907588 -1.37553268 -3.91765889 -0.81309902 0 0 Z " fill="#0663B7" transform="translate(556,489)"/>
<path d="M0 0 C-2.8125 2.0625 -2.8125 2.0625 -6 4 C-6.99 3.67 -7.98 3.34 -9 3 C-8.67 2.01 -8.34 1.02 -8 0 C-5.04215769 -1.22393475 -3.00272755 -0.96516243 0 0 Z " fill="#09386D" transform="translate(740,860)"/>
<path d="M0 0 C-1.48781815 3.78717347 -3.61988409 5.77407001 -7 8 C-7.99 7.67 -8.98 7.34 -10 7 C-8.71372289 5.82739389 -7.42080217 4.6620717 -6.125 3.5 C-5.04605469 2.52546875 -5.04605469 2.52546875 -3.9453125 1.53125 C-2 0 -2 0 0 0 Z " fill="#1C467E" transform="translate(739,837)"/>
<path d="M0 0 C0.99 0.33 1.98 0.66 3 1 C3.73046875 3.06640625 3.73046875 3.06640625 4.1875 5.5625 C4.34605469 6.38878906 4.50460937 7.21507812 4.66796875 8.06640625 C4.77753906 8.70449219 4.88710938 9.34257813 5 10 C4.34 9.34 3.68 8.68 3 8 C3 7.01 3 6.02 3 5 C2.01 5 1.02 5 0 5 C-0.5625 3.0625 -0.5625 3.0625 -1 1 C-0.67 0.67 -0.34 0.34 0 0 Z " fill="#08356A" transform="translate(893,817)"/>
<path d="M0 0 C2 2 2 2 2.1953125 4.3828125 C2.17210937 5.28773438 2.14890625 6.19265625 2.125 7.125 C2.10695313 8.03507813 2.08890625 8.94515625 2.0703125 9.8828125 C2.03550781 10.93082031 2.03550781 10.93082031 2 12 C1.01 11.34 0.02 10.68 -1 10 C-0.67 6.7 -0.34 3.4 0 0 Z " fill="#053265" transform="translate(756,797)"/>
<path d="M0 0 C0.66 0 1.32 0 2 0 C2.3636198 4.24223102 1.5393228 6.58168085 -1 10 C-1.66 10 -2.32 10 -3 10 C-2.01 6.7 -1.02 3.4 0 0 Z " fill="#254F82" transform="translate(842,789)"/>
<path d="M0 0 C1.36511719 0.29197266 1.36511719 0.29197266 2.7578125 0.58984375 C3.45648438 0.74582031 4.15515625 0.90179687 4.875 1.0625 C4.875 1.7225 4.875 2.3825 4.875 3.0625 C3.43663249 2.94791307 1.99929034 2.82040884 0.5625 2.6875 C-0.23800781 2.61789062 -1.03851563 2.54828125 -1.86328125 2.4765625 C-4.125 2.0625 -4.125 2.0625 -7.125 0.0625 C-4.4030754 -1.2984623 -2.9418043 -0.64116248 0 0 Z " fill="#2880CA" transform="translate(495.125,518.9375)"/>
<path d="M0 0 C5.59823598 2.39924399 7.43773653 6.79915032 10 12 C9.34 12 8.68 12 8 12 C6.4921875 10.3203125 6.4921875 10.3203125 4.875 8.125 C4.33617187 7.40570313 3.79734375 6.68640625 3.2421875 5.9453125 C2 4 2 4 2 2 C1.34 2 0.68 2 0 2 C0 1.34 0 0.68 0 0 Z " fill="#16447F" transform="translate(856,461)"/>
<path d="M0 0 C1.9375 0.25 1.9375 0.25 4 1 C4.66 1.99 5.32 2.98 6 4 C3.69 4 1.38 4 -1 4 C-1 1 -1 1 0 0 Z " fill="#083869" transform="translate(214,865)"/>
<path d="M0 0 C-3.18762365 2.12508244 -5.26512223 2.5020163 -9 3 C-9.33 2.01 -9.66 1.02 -10 0 C-6.42355152 -1.2380014 -3.66305234 -0.74926071 0 0 Z " fill="#174982" transform="translate(687,758)"/>
<path d="M0 0 C0.93065133 2.60582371 1.14917407 3.64198224 0.0625 6.25 C-0.4634375 7.11625 -0.4634375 7.11625 -1 8 C-1.66 8 -2.32 8 -3 8 C-3.33 6.35 -3.66 4.7 -4 3 C-2.68 2.01 -1.36 1.02 0 0 Z " fill="#1B4F8F" transform="translate(730,553)"/>
<path d="M0 0 C-0.556875 0.268125 -1.11375 0.53625 -1.6875 0.8125 C-4.08808046 1.98723915 -4.08808046 1.98723915 -6.5 3.6875 C-9 5 -9 5 -11.15625 4.58203125 C-11.7646875 4.38996094 -12.373125 4.19789063 -13 4 C-11.40233897 3.13372601 -9.79660056 2.28233535 -8.1875 1.4375 C-7.29417969 0.96183594 -6.40085937 0.48617187 -5.48046875 -0.00390625 C-3 -1 -3 -1 0 0 Z " fill="#D6E4F2" transform="translate(716,547)"/>
<path d="M0 0 C1.31571603 0.2547514 2.62760376 0.52934141 3.9375 0.8125 C4.66839844 0.96332031 5.39929688 1.11414063 6.15234375 1.26953125 C6.76207031 1.51058594 7.37179688 1.75164063 8 2 C8.33 2.99 8.66 3.98 9 5 C4.68607774 4.5206753 2.83430453 3.2542015 0 0 Z " fill="#2080D1" transform="translate(247,707)"/>
<path d="M0 0 C6.625 0.75 6.625 0.75 10 3 C4.58461538 4.23076923 4.58461538 4.23076923 1.625 3.0625 C1.08875 2.711875 0.5525 2.36125 0 2 C0 1.34 0 0.68 0 0 Z " fill="#1372C3" transform="translate(524,550)"/>
<path d="M0 0 C0.33 0.99 0.66 1.98 1 3 C-4.41538462 7.06153846 -4.41538462 7.06153846 -7.375 6.75 C-7.91125 6.5025 -8.4475 6.255 -9 6 C-9 5.67 -9 5.34 -9 5 C-8.071875 4.731875 -7.14375 4.46375 -6.1875 4.1875 C-3.23759634 3.08851629 -1.94384814 2.37581439 0 0 Z " fill="#1270C5" transform="translate(550,469)"/>
<path d="M0 0 C0.66 0.33 1.32 0.66 2 1 C0.79618552 3.49361571 -0.45428722 5.68143083 -2 8 C-2.99 7.67 -3.98 7.34 -5 7 C-3.35 4.69 -1.7 2.38 0 0 Z " fill="#1C90DD" transform="translate(530,333)"/>
<path d="M0 0 C0.99 0 1.98 0 3 0 C2.5205537 4.21912747 1.83374881 6.79663178 -1 10 C-1.09978121 6.50765756 -0.77842938 3.40562852 0 0 Z " fill="#0B396F" transform="translate(934,807)"/>
<path d="M0 0 C0.99 0 1.98 0 3 0 C4.61949011 2.57213134 5.04408751 3.67669159 4.625 6.75 C4.41875 7.4925 4.2125 8.235 4 9 C2.00902154 6.01353231 1.05875074 3.40312738 0 0 Z " fill="#0E4580" transform="translate(789,810)"/>
<path d="M0 0 C0.99 0 1.98 0 3 0 C2.25 5.75 2.25 5.75 0 8 C-0.38063221 5.6739143 -0.71269945 3.33944736 -1 1 C-0.67 0.67 -0.34 0.34 0 0 Z " fill="#053264" transform="translate(854,800)"/>
<path d="M0 0 C0.33 0.66 0.66 1.32 1 2 C-4.41538462 3.23076923 -4.41538462 3.23076923 -7.375 2.0625 C-7.91125 1.711875 -8.4475 1.36125 -9 1 C-5.8035914 -0.06546953 -3.34252724 -0.07427838 0 0 Z " fill="#2F5C90" transform="translate(1007,756)"/>
<path d="M0 0 C2.88437779 1.29299694 4.87219421 2.65941363 7 5 C6.67 5.99 6.34 6.98 6 8 C5.67 7.01 5.34 6.02 5 5 C3.06669397 3.90833725 3.06669397 3.90833725 1 3 C0.34 2.34 -0.32 1.68 -1 1 C-0.67 0.67 -0.34 0.34 0 0 Z " fill="#0F3A73" transform="translate(516,605)"/>
<path d="M0 0 C-1 3 -1 3 -3 4 C-4.99960012 4.039992 -7.00047242 4.04346799 -9 4 C-3.7826087 0 -3.7826087 0 0 0 Z " fill="#225089" transform="translate(802,597)"/>
<path d="M0 0 C0.66 0 1.32 0 2 0 C0.55746343 3.36591866 -1.33264727 5.51047079 -4 8 C-4.66 7.67 -5.32 7.34 -6 7 C-4.625 5 -4.625 5 -3 3 C-2.34 3 -1.68 3 -1 3 C-0.67 2.01 -0.34 1.02 0 0 Z " fill="#07376F" transform="translate(716,578)"/>
<path d="M0 0 C4.455 0.99 4.455 0.99 9 2 C9 2.66 9 3.32 9 4 C5.625 3.6875 5.625 3.6875 2 3 C1.34 2.01 0.68 1.02 0 0 Z " fill="#297AC3" transform="translate(574,544)"/>
<path d="M0 0 C2.08954032 4.17908064 2.16552619 4.80410573 1 9 C0.01 9 -0.98 9 -2 9 C-1.34 6.03 -0.68 3.06 0 0 Z " fill="#245288" transform="translate(928,773)"/>
<path d="M0 0 C2.97 0.495 2.97 0.495 6 1 C6 1.66 6 2.32 6 3 C2.7 3 -0.6 3 -4 3 C-2.68 2.67 -1.36 2.34 0 2 C0 1.34 0 0.68 0 0 Z " fill="#033467" transform="translate(1013,770)"/>
<path d="M0 0 C0.99 0.66 1.98 1.32 3 2 C2.67 3.32 2.34 4.64 2 6 C0.68 6.33 -0.64 6.66 -2 7 C-1.125 1.125 -1.125 1.125 0 0 Z " fill="#053B76" transform="translate(726,557)"/>
<path d="M0 0 C2.31 0 4.62 0 7 0 C7.33 0.99 7.66 1.98 8 3 C8.66 3.33 9.32 3.66 10 4 C7.69 3.67 5.38 3.34 3 3 C3 2.34 3 1.68 3 1 C2.01 0.67 1.02 0.34 0 0 Z " fill="#2E76BC" transform="translate(601,552)"/>
<path d="M0 0 C0.99 0 1.98 0 3 0 C3.99 1.98 4.98 3.96 6 6 C5.01 6 4.02 6 3 6 C2.01 4.02 1.02 2.04 0 0 Z " fill="#1B4A82" transform="translate(967,850)"/>
<path d="M0 0 C1 3 1 3 -0.4375 6.1875 C-1.2109375 7.5796875 -1.2109375 7.5796875 -2 9 C-2.33 9 -2.66 9 -3 9 C-3.36923077 3.46153846 -3.36923077 3.46153846 -1.5 1.125 C-1.005 0.75375 -0.51 0.3825 0 0 Z " fill="#0A386D" transform="translate(928,827)"/>
<path d="M0 0 C0 0.66 0 1.32 0 2 C-0.66 2 -1.32 2 -2 2 C-2.33 3.32 -2.66 4.64 -3 6 C-3.99 6 -4.98 6 -6 6 C-6 5.01 -6 4.02 -6 3 C-2.66666667 0 -2.66666667 0 0 0 Z " fill="#1A467F" transform="translate(327,765)"/>
<path d="M0 0 C-1.04874998 2.62187494 -1.64931313 3.79371361 -4.125 5.25 C-4.74375 5.4975 -5.3625 5.745 -6 6 C-5.6875 4.125 -5.6875 4.125 -5 2 C-2 0 -2 0 0 0 Z " fill="#0775C9" transform="translate(282,702)"/>
<path d="M0 0 C4.455 0.99 4.455 0.99 9 2 C5 4 5 4 1.75 3.125 C0.8425 2.75375 -0.065 2.3825 -1 2 C-0.67 1.34 -0.34 0.68 0 0 Z " fill="#136DB9" transform="translate(535,553)"/>
<path d="M0 0 C0.66 0 1.32 0 2 0 C2.33 1.32 2.66 2.64 3 4 C1.02 4.99 1.02 4.99 -1 6 C-1 2 -1 2 0 0 Z " fill="#239EE1" transform="translate(549,303)"/>
</svg>
